<?xml version="1.0" encoding="iso-8859-1"?>
<!DOCTYPE svg PUBLIC "-//W3C//DTD SVG 1.1//EN" "http://www.w3.org/Graphics/SVG/1.1/DTD/svg11.dtd">
<svg xmlns="http://www.w3.org/2000/svg" xmlns:xlink= "http://www.w3.org/1999/xlink" height="24" width="24" viewBox="0 0 24 24" aria-hidden="true" className="inline-block align-middle text-white">
	<path d="M20,3.5 L20,8.75 C20,9.16 19.66,9.5 19.25,9.5 C18.84,9.5 18.5,9.16 18.5,8.75 L18.5,5 L12.5,5 L12.5,19 L15.25,19 C15.66,19 16,19.34 16,19.75 C16,20.16 15.66,20.5 15.25,20.5 L8.25,20.5 C7.84,20.5 7.5,20.16 7.5,19.75 C7.5,19.34 7.84,19 8.25,19 L11,19 L11,5 L5,5 L5,8.75 C5,9.16 4.66,9.5 4.25,9.5 C3.84,9.5 3.5,9.16 3.5,8.75 L3.5,3.5 L20,3.5 Z" fill="white"></path>
</svg>