<?xml version="1.0" encoding="iso-8859-1"?>
<!DOCTYPE svg PUBLIC "-//W3C//DTD SVG 1.1//EN" "http://www.w3.org/Graphics/SVG/1.1/DTD/svg11.dtd">
<svg xmlns="http://www.w3.org/2000/svg" xmlns:xlink= "http://www.w3.org/1999/xlink" height="24" width="24" viewBox="0 0 24 24" aria-hidden="true" className="inline-block align-middle text-white">
	<path d="M3.1582,20.8418 C4.9082,22.5918 7.7682,22.5918 9.5282,20.8418 L12.9282,17.4318 C12.2982,17.4318 11.6882,17.3318 11.0982,17.1418 L8.4582,19.7808 C7.2982,20.9418 5.3882,20.9418 4.2182,19.7808 C3.0582,18.6118 3.0582,16.7008 4.2182,15.5418 L8.8182,10.9418 C9.9782,9.7718 11.8882,9.7718 13.0582,10.9418 C13.2982,11.1818 13.4982,11.4618 13.6282,11.7618 C13.6782,11.7318 13.7182,11.7008 13.7682,11.6518 L14.7482,10.6718 C14.5782,10.3918 14.3682,10.1208 14.1182,9.8818 C12.3682,8.1318 9.5082,8.1318 7.7582,9.8818 L3.1582,14.4718 C1.4082,16.2318 1.4082,19.0918 3.1582,20.8418 M20.8402,9.5298 L16.2402,14.1198 C14.4902,15.8698 11.6302,15.8698 9.8802,14.1198 C9.6302,13.8798 9.4202,13.6108 9.2502,13.3298 L10.2302,12.3498 C10.2802,12.2998 10.3202,12.2698 10.3702,12.2398 C10.5002,12.5398 10.7002,12.8208 10.9402,13.0598 C12.1102,14.2308 14.0202,14.2308 15.1802,13.0598 L19.7802,8.4598 C20.9402,7.2998 20.9402,5.3898 19.7802,4.2198 C18.6102,3.0598 16.7002,3.0598 15.5402,4.2198 L12.9002,6.8608 C12.3102,6.6698 11.7002,6.5708 11.0702,6.5708 L14.4702,3.1598 C16.2302,1.4098 19.0902,1.4098 20.8402,3.1598 C22.5902,4.9098 22.5902,7.7698 20.8402,9.5298" fill="white"></path>
</svg>