<?xml version="1.0" encoding="iso-8859-1"?>
<!DOCTYPE svg PUBLIC "-//W3C//DTD SVG 1.1//EN" "http://www.w3.org/Graphics/SVG/1.1/DTD/svg11.dtd">
<svg xmlns="http://www.w3.org/2000/svg" xmlns:xlink= "http://www.w3.org/1999/xlink" height="24" width="24" viewBox="0 0 24 24" aria-hidden="true" class="inline-block align-middle">
	<path d="M18,3 L6,3 C4.343,3 3,4.343 3,6 L3,18 C3,19.657 4.343,21 6,21 L18,21 C19.657,21 21,19.657 21,18 L21,6 C21,4.343 19.657,3 18,3 M18,4.5 C18.827,4.5 19.5,5.173 19.5,6 L19.5,18 C19.5,18.827 18.827,19.5 18,19.5 L6,19.5 C5.173,19.5 4.5,18.827 4.5,18 L4.5,6 C4.5,5.173 5.173,4.5 6,4.5 L18,4.5" fill="white"></path>
</svg>