<?xml version="1.0" encoding="iso-8859-1"?>
<!DOCTYPE svg PUBLIC "-//W3C//DTD SVG 1.1//EN" "http://www.w3.org/Graphics/SVG/1.1/DTD/svg11.dtd">
<svg xmlns="http://www.w3.org/2000/svg" xmlns:xlink= "http://www.w3.org/1999/xlink" height="24" width="24" viewBox="0 0 24 24" aria-hidden="true" class="inline-block align-middle">
	<path d="M20.4702,19.4102 C20.7602,19.7002 20.7602,20.1802 20.4702,20.4702 C20.3202,20.6202 20.1302,20.6902 19.9402,20.6902 C19.7502,20.6902 19.5602,20.6202 19.4102,20.4702 L12.0002,13.0602 L4.5902,20.4702 C4.3002,20.7602 3.8202,20.7602 3.5302,20.4702 C3.3802,20.3202 3.3102,20.1302 3.3102,19.9402 C3.3102,19.7502 3.3802,19.5602 3.5302,19.4102 L10.9402,12.0002 L3.5302,4.5902 C3.2402,4.3002 3.2402,3.8202 3.5302,3.5302 C3.6802,3.3802 3.8702,3.3102 4.0602,3.3102 C4.2502,3.3102 4.4402,3.3802 4.5902,3.5302 L12.0002,10.9402 L19.4102,3.5302 C19.7002,3.2402 20.1802,3.2402 20.4702,3.5302 C20.6202,3.6802 20.6902,3.8702 20.6902,4.0602 C20.6902,4.2502 20.6202,4.4402 20.4702,4.5902 L13.0602,12.0002 L20.4702,19.4102 Z" fill="white"></path>
</svg>