<?xml version="1.0" encoding="iso-8859-1"?>
<!DOCTYPE svg PUBLIC "-//W3C//DTD SVG 1.1//EN" "http://www.w3.org/Graphics/SVG/1.1/DTD/svg11.dtd">
<svg xmlns="http://www.w3.org/2000/svg" xmlns:xlink= "http://www.w3.org/1999/xlink" height="24" width="24" viewBox="0 0 24 24" aria-hidden="true" class="inline-block align-middle">
	<path d="M8,21.3799 L2.62,15.9999 L4.44,14.1799 L7.23,16.9699 L8.11,16.0899 L5.32,13.2999 L7.4,11.2199 L9.2,13.0199 L10.08,12.1399 L8.28,10.3399 L10.35,8.2699 L13.16,11.0799 L14.04,10.1999 L11.23,7.3899 L13.3,5.3199 L15.11,7.1199 L15.99,6.2309 L14.19,4.4299 L16,2.6199 L21.38,7.9999 L8,21.3799 Z M22.79,7.2899 L16.71,1.2099 C16.52,1.0099 16.26,0.9199 16,0.9199 C15.74,0.9199 15.49,1.0099 15.29,1.2099 L1.21,15.2899 C0.82,15.6799 0.82,16.3199 1.21,16.7099 L7.29,22.7899 C7.49,22.9809 7.74,23.0799 8,23.0799 C8.26,23.0799 8.52,22.9809 8.71,22.7899 L22.79,8.7099 C23.18,8.3199 23.18,7.6799 22.79,7.2899 L22.79,7.2899 Z" fill="white"></path>
</svg>