<?xml version="1.0" encoding="iso-8859-1"?>
<!DOCTYPE svg PUBLIC "-//W3C//DTD SVG 1.1//EN" "http://www.w3.org/Graphics/SVG/1.1/DTD/svg11.dtd">
<svg xmlns="http://www.w3.org/2000/svg" xmlns:xlink= "http://www.w3.org/1999/xlink" height="24" width="24" viewBox="0 0 24 24" aria-hidden="true">
	<path d="M20,7 C20,6.45 19.85,5.94 19.6,5.5 C19.34,5.04 18.96,4.66 18.5,4.4 C18.06,4.15 17.55,4 17,4 L16,4 L16,5.5 L17,5.5 C17.83,5.5 18.5,6.17 18.5,7 L18.5,8 L20,8 L20,7 Z M4,17 C4,17.55 4.15,18.06 4.4,18.5 C4.66,18.96 5.04,19.34 5.5,19.6 C5.94,19.85 6.45,20 7,20 L8,20 L8,18.5 L7,18.5 C6.17,18.5 5.5,17.83 5.5,17 L5.5,16 L4,16 L4,17 Z M17,20 C17.55,20 18.06,19.85 18.5,19.6 C18.96,19.34 19.34,18.96 19.6,18.5 C19.85,18.06 20,17.55 20,17 L20,16 L18.5,16 L18.5,17 C18.5,17.83 17.83,18.5 17,18.5 L16,18.5 L16,20 L17,20 Z M7,4 C6.45,4 5.94,4.15 5.5,4.4 C5.04,4.66 4.66,5.04 4.4,5.5 C4.15,5.94 4,6.45 4,7 L4,8 L5.5,8 L5.5,7 C5.5,6.17 6.17,5.5 7,5.5 L8,5.5 L8,4 L7,4 Z M18.5,13.5 L20,13.5 L20,10.5 L18.5,10.5 L18.5,13.5 Z M10.5,20 L13.5,20 L13.5,18.5 L10.5,18.5 L10.5,20 Z M4,13.5 L5.5,13.5 L5.5,10.5 L4,10.5 L4,13.5 Z M10.5,5.5 L13.5,5.5 L13.5,4 L10.5,4 L10.5,5.5 Z" fill="#2b6cb0"></path>
</svg>
