<?xml version="1.0" encoding="iso-8859-1"?>
<!DOCTYPE svg PUBLIC "-//W3C//DTD SVG 1.1//EN" "http://www.w3.org/Graphics/SVG/1.1/DTD/svg11.dtd">
<svg xmlns="http://www.w3.org/2000/svg" xmlns:xlink= "http://www.w3.org/1999/xlink" height="18" width="18" viewBox="0 0 18 18" aria-hidden="true">
	<path d="M14.5,11H16v2a3,3,0,0,1-3,3H5a3,3,0,0,1-3-3V5A3,3,0,0,1,5,2H8V3.5H5A1.5,1.5,0,0,0,3.5,5v8A1.5,1.5,0,0,0,5,14.5h8A1.5,1.5,0,0,0,14.5,13ZM17,5.35A.79.79,0,0,0,16.78,5L13,1.22A.75.75,0,0,0,12,2.28l2.47,2.47H11.25A5.25,5.25,0,0,0,6,10v1.25a.75.75,0,0,0,1.5,0V10a3.75,3.75,0,0,1,3.75-3.75h3.19L12,8.72A.75.75,0,1,0,13,9.78L16.78,6A.72.72,0,0,0,17,5.65c0-.05,0-.1,0-.15S17,5.4,17,5.35Z" fill="#2b6cb0"></path>
</svg>