<?xml version="1.0" encoding="iso-8859-1"?>
<!DOCTYPE svg PUBLIC "-//W3C//DTD SVG 1.1//EN" "http://www.w3.org/Graphics/SVG/1.1/DTD/svg11.dtd">
<svg xmlns="http://www.w3.org/2000/svg" xmlns:xlink= "http://www.w3.org/1999/xlink" height="24" width="24" viewBox="0 0 24 24" aria-hidden="true" className="inline-block align-middle text-white">
    <path d="M3.7896,13.7217 L7.2626,21.3287 C7.3246,21.4827 7.4366,21.4997 7.4996,21.4997 L16.7496,21.4997 C16.8706,21.4997 16.9696,21.4147 16.9926,21.2917 L18.2406,14.0527 C18.2686,13.9117 18.1916,13.7967 18.0576,13.7527 L11.0186,11.4637 C10.7086,11.3627 10.4996,11.0747 10.4996,10.7497 L10.4996,3.2497 C10.4996,2.8367 10.1636,2.4997 9.7496,2.4997 C9.3366,2.4997 8.9996,2.8367 8.9996,3.2497 L8.9996,16.2497 C8.9996,16.5837 8.7796,16.8777 8.4586,16.9707 C8.1366,17.0637 7.7936,16.9327 7.6156,16.6497 C7.5946,16.6157 5.6606,13.6387 3.7896,13.7217 M16.7496,22.9997 L7.4996,22.9997 C6.7776,22.9997 6.1426,22.5747 5.8826,21.9157 L2.0676,13.5617 C1.9026,13.2007 2.0476,12.7737 2.3986,12.5877 C4.3736,11.5367 6.2716,12.8567 7.4996,14.1187 L7.4996,3.2497 C7.4996,2.0097 8.5096,0.9997 9.7496,0.9997 C10.9906,0.9997 11.9996,2.0097 11.9996,3.2497 L11.9996,10.2047 L18.5216,12.3267 C18.5216,12.3267 18.5226,12.3267 18.5226,12.3267 C19.3756,12.6057 19.8876,13.4657 19.7156,14.3277 L18.4696,21.5577 C18.3116,22.3977 17.5896,22.9997 16.7496,22.9997 M13.9996,4.0047 C13.9996,4.5567 14.4476,5.0047 14.9996,5.0047 C15.5526,5.0047 15.9996,4.5567 15.9996,4.0047 C15.9996,3.4527 15.5526,3.0047 14.9996,3.0047 C14.4476,3.0047 13.9996,3.4527 13.9996,4.0047 M17.9996,4.0047 C17.9996,4.5567 18.4476,5.0047 18.9996,5.0047 C19.5526,5.0047 19.9996,4.5567 19.9996,4.0047 C19.9996,3.4527 19.5526,3.0047 18.9996,3.0047 C18.4476,3.0047 17.9996,3.4527 17.9996,4.0047 M22.9996,3.0047 C23.5526,3.0047 23.9996,3.4527 23.9996,4.0047 C23.9996,4.5567 23.5526,5.0047 22.9996,5.0047 C22.4476,5.0047 21.9996,4.5567 21.9996,4.0047 C21.9996,3.4527 22.4476,3.0047 22.9996,3.0047" fill="white"></path>
</svg>