<svg xmlns="http://www.w3.org/2000/svg" height="24" width="24" viewBox="0 0 24 24" aria-hidden="true">
    <path d="M19,11.75 C19,12.16 18.66,12.5 18.25,12.5 L7.56,12.5 L11.28,16.22 C11.57,16.51 11.57,16.99 11.28,17.28 C11.15,17.41 10.94,17.49 10.75,17.5 C10.56,17.49 10.36,17.41 10.22,17.28 L5.22,12.28 C5.08,12.14 5,11.94 5,11.75 C5,11.55 5.09,11.36 5.22,11.22 L10.22,6.22 C10.51,5.93 10.99,5.93 11.28,6.22 C11.42,6.36 11.5,6.55 11.5,6.75 C11.5,6.94 11.42,7.14 11.28,7.28 L7.56,11 L18.25,11 C18.66,11 19,11.34 19,11.75" fill="white"></path>
</svg>