<?xml version="1.0" encoding="iso-8859-1"?>
<!DOCTYPE svg PUBLIC "-//W3C//DTD SVG 1.1//EN" "http://www.w3.org/Graphics/SVG/1.1/DTD/svg11.dtd">
<svg xmlns="http://www.w3.org/2000/svg" xmlns:xlink= "http://www.w3.org/1999/xlink" height="24" width="24" viewBox="0 0 24 24" aria-hidden="true" className="inline-block align-middle text-white">
    <path d="M20.4702,4.5898 L6.5602,18.4998 L12.2502,18.4998 C12.6602,18.4998 13.0002,18.8398 13.0002,19.2498 C13.0002,19.4398 12.9102,19.6398 12.7802,19.7798 C12.6402,19.9098 12.4402,19.9998 12.2502,19.9998 L4.7502,19.9998 C4.5502,19.9998 4.3502,19.9098 4.2202,19.7798 C4.0802,19.6398 4.0002,19.4398 4.0002,19.2498 L4.0002,11.7498 C4.0002,11.3398 4.3402,10.9998 4.7502,10.9998 C4.9402,10.9998 5.1402,11.0798 5.2802,11.2198 C5.4102,11.3498 5.5002,11.5498 5.5002,11.7498 L5.5002,17.4398 L19.4102,3.5298 C19.7002,3.2398 20.1802,3.2398 20.4702,3.5298 C20.6202,3.6798 20.6902,3.8698 20.6902,4.0598 C20.6902,4.2498 20.6202,4.4398 20.4702,4.5898" fill="white"></path>
</svg>