<?xml version="1.0" encoding="iso-8859-1"?>
<!DOCTYPE svg PUBLIC "-//W3C//DTD SVG 1.1//EN" "http://www.w3.org/Graphics/SVG/1.1/DTD/svg11.dtd">
<svg xmlns="http://www.w3.org/2000/svg" xmlns:xlink= "http://www.w3.org/1999/xlink"
 height="24" width="24" viewBox="0 0 24 24" aria-hidden="true">
    <path d="M19,12 C19,12.41 18.66,12.75 18.25,12.75 L12.75,12.75 L12.75,18.25 C12.75,18.66 12.41,19 12,19 C11.59,19 11.25,18.66 11.25,18.25 L11.25,12.75 L5.75,12.75 C5.34,12.75 5,12.41 5,12 C5,11.59 5.34,11.25 5.75,11.25 L11.25,11.25 L11.25,5.75 C11.25,5.34 11.59,5 12,5 C12.41,5 12.75,5.34 12.75,5.75 L12.75,11.25 L18.25,11.25 C18.66,11.25 19,11.59 19,12" fill="white">
    </path>
</svg>