<?xml version="1.0" encoding="iso-8859-1"?>
<!DOCTYPE svg PUBLIC "-//W3C//DTD SVG 1.1//EN" "http://www.w3.org/Graphics/SVG/1.1/DTD/svg11.dtd">
<svg xmlns="http://www.w3.org/2000/svg" xmlns:xlink= "http://www.w3.org/1999/xlink" height="24" width="24" viewBox="0 0 24 24" aria-hidden="true" className="inline-block align-middle text-white">
    <path d="M9.5,20 L5.75,16.25 L1,21 L8.5,21 L9.5,20 Z M23.47,10.279 L16.12,17.62 C16.12,17.62 15.51,17.42 14.64,17.42 C13.64,17.42 12.32,17.68 11.17,18.83 L6.92,14.58 C9.02,12.49 8.13,9.63 8.13,9.63 L15.47,2.281 C15.763,1.988 16.238,1.988 16.531,2.281 L16.54,2.29 C16.833,2.583 16.832,3.058 16.539,3.35 L9.75,10.13 C9.88,11.15 9.89,12.84 8.92,14.45 L11.3,16.83 C12.28,16.23 13.41,15.92 14.64,15.92 C15.01,15.92 15.35,15.95 15.64,15.99 L22.41,9.22 C22.703,8.927 23.177,8.927 23.47,9.22 C23.763,9.513 23.763,9.987 23.47,10.279 L23.47,10.279 Z" fill="white"></path>
</svg>