<?xml version="1.0" encoding="iso-8859-1"?>
<!DOCTYPE svg PUBLIC "-//W3C//DTD SVG 1.1//EN" "http://www.w3.org/Graphics/SVG/1.1/DTD/svg11.dtd">
<svg xmlns="http://www.w3.org/2000/svg" xmlns:xlink= "http://www.w3.org/1999/xlink" height="24" width="24" viewBox="0 0 24 24" aria-hidden="true" className="inline-block align-middle text-white">
	<path d="M12.5,10 C13.33,10 14,10.67 14,11.5 L14,14.91 C12.01,14.58 10.36,13.27 9.55,11.5 L7.94,11.5 C8.85,14.11 11.18,16.06 14,16.43 L14,19.5 C14,20.33 13.33,21 12.5,21 L4.5,21 C3.67,21 3,20.33 3,19.5 L3,11.5 C3,10.67 3.67,10 4.5,10 L12.5,10 Z M15,1.5 C11.03,1.5 7.77,4.59 7.53,8.5 L4.5,8.5 C2.84,8.5 1.5,9.84 1.5,11.5 L1.5,19.5 C1.5,21.16 2.84,22.5 4.5,22.5 L12.5,22.5 C14.16,22.5 15.5,21.16 15.5,19.5 L15.5,11.5 C15.5,9.84 14.16,8.5 12.5,8.5 L9.02,8.5 C9.28,5.42 11.86,3 15,3 C18.31,3 21,5.69 21,9 C21,11.61 19.33,13.84 17,14.65 L17,16.22 C20.17,15.35 22.5,12.45 22.5,9 C22.5,4.86 19.14,1.5 15,1.5 L15,1.5 Z" fill="white"></path>
</svg>