<?xml version="1.0" encoding="iso-8859-1"?>
<!DOCTYPE svg PUBLIC "-//W3C//DTD SVG 1.1//EN" "http://www.w3.org/Graphics/SVG/1.1/DTD/svg11.dtd">
<svg xmlns="http://www.w3.org/2000/svg" xmlns:xlink= "http://www.w3.org/1999/xlink" height="24" width="24" viewBox="0 0 24 24" aria-hidden="true" className="inline-block align-middle text-white">
	<path d="M15.3003,10.3604 L12.1643,7.2304 L13.5763,5.8204 L15.1383,7.3704 L16.0203,6.4804 L14.4673,4.9294 L14.5283,4.8804 L16.2003,3.2004 L20.9093,7.9004 C21.6603,8.6504 21.8813,10.2694 21.7513,11.5894 L17.9143,7.7594 L15.3003,10.3604 Z M18.0743,15.2504 C17.7943,15.2804 17.4933,15.2904 17.1833,15.2904 C15.9013,15.2904 14.7883,14.9904 14.2983,14.5004 L9.5893,9.7994 L11.1123,8.2904 L18.0743,15.2504 Z M5.3423,20.2994 L2.2053,17.1704 L3.8233,15.5544 L5.3663,17.0944 L6.2483,16.2144 L4.7053,14.6744 L6.2883,13.0944 L7.8413,14.6444 L8.7223,13.7644 L7.1703,12.2144 L8.5273,10.8604 L11.6633,13.9904 L5.3423,20.2994 Z M22.3723,14.3394 C23.3743,13.3394 23.8443,8.7004 21.9713,6.8394 L16.9113,1.7904 C16.8623,1.7404 16.8113,1.7004 16.7613,1.6604 C16.7513,1.6604 16.7513,1.6604 16.7513,1.6504 C16.5813,1.5494 16.3903,1.5004 16.2003,1.5004 L16.1203,1.5004 C16.0903,1.5094 16.0603,1.5094 16.0403,1.5094 C15.9803,1.5304 15.9203,1.5404 15.8693,1.5594 C15.7293,1.5994 15.5993,1.6794 15.4893,1.7904 L0.7933,16.4604 C0.4023,16.8494 0.4023,17.4904 0.7933,17.8804 L4.6313,21.7104 C4.8313,21.9004 5.0813,22.0004 5.3423,22.0004 C5.6023,22.0004 5.8623,21.9004 6.0533,21.7104 L12.7253,15.0494 L13.2363,15.5594 C14.1373,16.4504 15.6903,16.7904 17.1833,16.7904 C18.7863,16.7904 20.3093,16.4004 20.8303,15.8804 L16.3623,11.4204 L17.9043,9.8804 L22.3723,14.3394 Z" fill="white"></path>
</svg>