<?xml version="1.0" encoding="iso-8859-1"?>
<!DOCTYPE svg PUBLIC "-//W3C//DTD SVG 1.1//EN" "http://www.w3.org/Graphics/SVG/1.1/DTD/svg11.dtd">
<svg xmlns="http://www.w3.org/2000/svg" xmlns:xlink= "http://www.w3.org/1999/xlink" height="24" width="24" viewBox="0 0 24 24" aria-hidden="true" className="inline-block align-middle text-white">
	<path d="M23.293,12.793 L22.707,12.207 C22.316,11.816 21.684,11.816 21.293,12.207 L17,16.5 L15.707,15.207 C15.316,14.816 14.684,14.816 14.293,15.207 L13.707,15.793 C13.316,16.184 13.316,16.816 13.707,17.207 L16.293,19.793 C16.684,20.184 17.316,20.184 17.707,19.793 L23.293,14.207 C23.684,13.816 23.684,13.184 23.293,12.793 M11,18.75 L11,18.75 C11,18.336 10.664,18 10.25,18 L3.75,18 C3.336,18 3,18.336 3,18.75 C3,19.164 3.336,19.5 3.75,19.5 L10.25,19.5 C10.664,19.5 11,19.164 11,18.75 M11,14.25 L11,14.25 C11,13.836 10.664,13.5 10.25,13.5 L3.75,13.5 C3.336,13.5 3,13.836 3,14.25 C3,14.664 3.336,15 3.75,15 L10.25,15 C10.664,15 11,14.664 11,14.25 M19,9.75 L19,9.75 C19,9.336 18.664,9 18.25,9 L3.75,9 C3.336,9 3,9.336 3,9.75 C3,10.164 3.336,10.5 3.75,10.5 L18.25,10.5 C18.664,10.5 19,10.164 19,9.75 M18.25,6 L3.75,6 C3.336,6 3,5.664 3,5.25 C3,4.836 3.336,4.5 3.75,4.5 L18.25,4.5 C18.664,4.5 19,4.836 19,5.25 C19,5.664 18.664,6 18.25,6" fill="white"></path>
</svg>