<?xml version="1.0" encoding="iso-8859-1"?>
<!DOCTYPE svg PUBLIC "-//W3C//DTD SVG 1.1//EN" "http://www.w3.org/Graphics/SVG/1.1/DTD/svg11.dtd">
<svg xmlns="http://www.w3.org/2000/svg" xmlns:xlink= "http://www.w3.org/1999/xlink" height="24" width="24" viewBox="0 0 24 24" aria-hidden="true">
    <path d="M20.2803,19.2197 L17.5603,16.4997 L18.7503,16.4997 C18.9503,16.4997 19.1503,16.4097 19.2803,16.2807 C19.4203,16.1397 19.5003,15.9407 19.5003,15.7497 C19.5003,15.3397 19.1603,14.9997 18.7503,14.9997 L15.7503,14.9997 C15.5603,14.9997 15.3603,15.0797 15.2203,15.2197 C15.0903,15.3497 15.0003,15.5497 15.0003,15.7497 L15.0003,18.7497 C15.0003,18.9407 15.0903,19.1397 15.2203,19.2807 C15.3603,19.4097 15.5603,19.4997 15.7503,19.4997 C16.1603,19.4997 16.5003,19.1597 16.5003,18.7497 L16.5003,17.5597 L19.2203,20.2807 C19.3603,20.4197 19.5603,20.4997 19.7503,20.4997 C19.9403,20.4997 20.1403,20.4197 20.2803,20.2807 C20.5703,19.9907 20.5703,19.5097 20.2803,19.2197 M10.0003,11.9997 C10.0003,13.1047 10.8953,13.9997 12.0003,13.9997 C13.1043,13.9997 14.0003,13.1047 14.0003,11.9997 C14.0003,10.8957 13.1043,9.9997 12.0003,9.9997 C10.8953,9.9997 10.0003,10.8957 10.0003,11.9997 M8.7803,4.7197 C8.6403,4.5897 8.4403,4.4997 8.2503,4.4997 C7.8403,4.4997 7.5003,4.8397 7.5003,5.2497 L7.5003,6.4407 L4.7803,3.7197 C4.6403,3.5797 4.4403,3.4997 4.2503,3.4997 C4.0603,3.4997 3.8603,3.5797 3.7203,3.7197 C3.4303,4.0097 3.4303,4.4907 3.7203,4.7807 L6.4403,7.4997 L5.2503,7.4997 C5.0503,7.4997 4.8503,7.5897 4.7203,7.7197 C4.5803,7.8607 4.5003,8.0597 4.5003,8.2497 C4.5003,8.6597 4.8403,8.9997 5.2503,8.9997 L8.2503,8.9997 C8.4403,8.9997 8.6403,8.9197 8.7803,8.7807 C8.9103,8.6507 9.0003,8.4497 9.0003,8.2497 L9.0003,5.2497 C9.0003,5.0597 8.9103,4.8607 8.7803,4.7197 M20.5003,4.2497 C20.5003,4.0597 20.4203,3.8607 20.2803,3.7197 C19.9903,3.4297 19.5093,3.4297 19.2203,3.7197 L16.5003,6.4407 L16.5003,5.2497 C16.5003,5.0497 16.4103,4.8497 16.2803,4.7197 C16.1403,4.5797 15.9403,4.4997 15.7503,4.4997 C15.3403,4.4997 15.0003,4.8397 15.0003,5.2497 L15.0003,8.2497 C15.0003,8.4407 15.0803,8.6397 15.2203,8.7807 C15.3503,8.9097 15.5503,8.9997 15.7503,8.9997 L18.7503,8.9997 C18.9403,8.9997 19.1403,8.9097 19.2803,8.7807 C19.4103,8.6397 19.5003,8.4407 19.5003,8.2497 C19.5003,7.8397 19.1603,7.4997 18.7503,7.4997 L17.5603,7.4997 L20.2803,4.7807 C20.4203,4.6397 20.5003,4.4407 20.5003,4.2497 M9.0003,15.7497 L9.0003,18.7497 C9.0003,19.1597 8.6603,19.4997 8.2503,19.4997 C8.0603,19.4997 7.8603,19.4197 7.7203,19.2807 C7.5903,19.1507 7.5003,18.9497 7.5003,18.7497 L7.5003,17.5597 L4.7803,20.2807 C4.4903,20.5707 4.0093,20.5707 3.7203,20.2807 C3.5803,20.1397 3.5003,19.9407 3.5003,19.7497 C3.5003,19.5597 3.5803,19.3607 3.7203,19.2197 L6.4403,16.4997 L5.2503,16.4997 C4.8403,16.4997 4.5003,16.1597 4.5003,15.7497 C4.5003,15.5597 4.5903,15.3607 4.7203,15.2197 C4.8603,15.0897 5.0603,14.9997 5.2503,14.9997 L8.2503,14.9997 C8.4503,14.9997 8.6503,15.0897 8.7803,15.2197 C8.9203,15.3607 9.0003,15.5597 9.0003,15.7497" fill="white">
    </path>
</svg>