<?xml version="1.0" encoding="iso-8859-1"?>
<!DOCTYPE svg PUBLIC "-//W3C//DTD SVG 1.1//EN" "http://www.w3.org/Graphics/SVG/1.1/DTD/svg11.dtd">
<svg xmlns="http://www.w3.org/2000/svg" xmlns:xlink= "http://www.w3.org/1999/xlink" height="24" width="24" viewBox="0 0 24 24" aria-hidden="true" class="inline-block align-middle">
	<path d="M19.5,8.75 C19.09,8.75 18.75,9.09 18.75,9.5 C18.75,9.91 19.09,10.25 19.5,10.25 C19.91,10.25 20.25,9.91 20.25,9.5 C20.25,9.09 19.91,8.75 19.5,8.75 M6.5,5.75 C6.09,5.75 5.75,6.09 5.75,6.5 C5.75,6.91 6.09,7.25 6.5,7.25 C6.91,7.25 7.25,6.91 7.25,6.5 C7.25,6.09 6.91,5.75 6.5,5.75 M8.5,17.75 C8.09,17.75 7.75,18.09 7.75,18.5 C7.75,18.91 8.09,19.25 8.5,19.25 C8.91,19.25 9.25,18.91 9.25,18.5 C9.25,18.09 8.91,17.75 8.5,17.75 M10.5,14.75 C10.09,14.75 9.75,15.09 9.75,15.5 C9.75,15.91 10.09,16.25 10.5,16.25 C10.91,16.25 11.25,15.91 11.25,15.5 C11.25,15.09 10.91,14.75 10.5,14.75 M12.5,11.75 C12.09,11.75 11.75,12.09 11.75,12.5 C11.75,12.91 12.09,13.25 12.5,13.25 C12.91,13.25 13.25,12.91 13.25,12.5 C13.25,12.09 12.91,11.75 12.5,11.75 M14.5,8.75 C14.09,8.75 13.75,9.09 13.75,9.5 C13.75,9.91 14.09,10.25 14.5,10.25 C14.91,10.25 15.25,9.91 15.25,9.5 C15.25,9.09 14.91,8.75 14.5,8.75 M20.81,9.41 C20.81,9.01 20.65,8.63 20.37,8.35 C19.64,7.62 18.53,6.98 17.24,6.43 C17.25,6.45 17.25,6.48 17.25,6.5 C17.25,6.91 16.91,7.25 16.5,7.25 C16.09,7.25 15.75,6.91 15.75,6.5 C15.75,6.28 15.85,6.08 16,5.95 C12.77,4.8 9.01,4.19 7.64,4.19 C5.64,4.19 4.19,5.64 4.19,7.64 C4.19,7.98 4.2,8.38 4.23,8.81 C4.31,8.77 4.4,8.75 4.5,8.75 C4.91,8.75 5.25,9.09 5.25,9.5 C5.25,9.91 4.91,10.25 4.5,10.25 C4.45,10.25 4.4,10.24 4.35,10.23 C4.52,11.62 4.81,13.21 5.3,14.78 C5.36,14.76 5.43,14.75 5.5,14.75 C5.91,14.75 6.25,15.09 6.25,15.5 C6.25,15.81 6.06,16.08 5.79,16.19 C6.4,17.77 7.23,19.25 8.35,20.37 C8.63,20.65 9.01,20.81 9.41,20.81 C9.81,20.81 10.19,20.65 10.47,20.37 C11.39,19.45 11.48,18.62 11.61,17.46 C11.74,16.23 11.91,14.69 13.3,13.3 C14.69,11.91 16.23,11.74 17.46,11.61 C18.62,11.48 19.45,11.39 20.37,10.47 C20.65,10.19 20.81,9.81 20.81,9.41 M21.43,11.53 C18.95,14.01 16.48,12.24 14.36,14.36 C12.24,16.48 14.01,18.95 11.53,21.43 C10.95,22.02 10.18,22.31 9.41,22.31 C8.64,22.31 7.88,22.02 7.29,21.43 C3.75,17.89 2.69,11.18 2.69,7.64 C2.69,4.81 4.81,2.69 7.64,2.69 C9.76,2.69 18.25,4.11 21.43,7.29 C22.6,8.46 22.6,10.36 21.43,11.53 M7.5,11.75 C7.09,11.75 6.75,12.09 6.75,12.5 C6.75,12.91 7.09,13.25 7.5,13.25 C7.91,13.25 8.25,12.91 8.25,12.5 C8.25,12.09 7.91,11.75 7.5,11.75 M9.5,8.75 C9.09,8.75 8.75,9.09 8.75,9.5 C8.75,9.91 9.09,10.25 9.5,10.25 C9.91,10.25 10.25,9.91 10.25,9.5 C10.25,9.09 9.91,8.75 9.5,8.75 M12.25,6.5 C12.25,6.91 11.91,7.25 11.5,7.25 C11.09,7.25 10.75,6.91 10.75,6.5 C10.75,6.09 11.09,5.75 11.5,5.75 C11.91,5.75 12.25,6.09 12.25,6.5" fill="white"></path>
</svg>