<?xml version="1.0" encoding="iso-8859-1"?>
<!DOCTYPE svg PUBLIC "-//W3C//DTD SVG 1.1//EN" "http://www.w3.org/Graphics/SVG/1.1/DTD/svg11.dtd">
<svg xmlns="http://www.w3.org/2000/svg" xmlns:xlink= "http://www.w3.org/1999/xlink" height="24" width="24" viewBox="0 0 24 24" aria-hidden="true" class="inline-block align-middle">
	<path d="M17.25,16.5 C17.25,16.91 16.91,17.25 16.5,17.25 C16.09,17.25 15.75,16.91 15.75,16.5 C15.75,16.09 16.09,15.75 16.5,15.75 C16.91,15.75 17.25,16.09 17.25,16.5 L17.25,16.5 Z M19.25,13.5 C19.25,13.91 18.91,14.25 18.5,14.25 C18.09,14.25 17.75,13.91 17.75,13.5 C17.75,13.09 18.09,12.75 18.5,12.75 C18.91,12.75 19.25,13.09 19.25,13.5 L19.25,13.5 Z M6.25,10.5 C6.25,10.91 5.91,11.25 5.5,11.25 C5.09,11.25 4.75,10.91 4.75,10.5 C4.75,10.09 5.09,9.75 5.5,9.75 C5.91,9.75 6.25,10.09 6.25,10.5 L6.25,10.5 Z M8.25,7.5 C8.25,7.91 7.91,8.25 7.5,8.25 C7.09,8.25 6.75,7.91 6.75,7.5 C6.75,7.09 7.09,6.75 7.5,6.75 C7.91,6.75 8.25,7.09 8.25,7.5 L8.25,7.5 Z M12.25,16.5 C12.25,16.91 11.91,17.25 11.5,17.25 C11.09,17.25 10.75,16.91 10.75,16.5 C10.75,16.09 11.09,15.75 11.5,15.75 C11.91,15.75 12.25,16.09 12.25,16.5 L12.25,16.5 Z M14.25,13.5 C14.25,13.91 13.91,14.25 13.5,14.25 C13.09,14.25 12.75,13.91 12.75,13.5 C12.75,13.09 13.09,12.75 13.5,12.75 C13.91,12.75 14.25,13.09 14.25,13.5 L14.25,13.5 Z M16.25,10.5 C16.25,10.91 15.91,11.25 15.5,11.25 C15.09,11.25 14.75,10.91 14.75,10.5 C14.75,10.09 15.09,9.75 15.5,9.75 C15.91,9.75 16.25,10.09 16.25,10.5 L16.25,10.5 Z M18.25,7.5 C18.25,7.91 17.91,8.25 17.5,8.25 C17.09,8.25 16.75,7.91 16.75,7.5 C16.75,7.09 17.09,6.75 17.5,6.75 C17.91,6.75 18.25,7.09 18.25,7.5 L18.25,7.5 Z M7.25,16.5 C7.25,16.91 6.91,17.25 6.5,17.25 C6.09,17.25 5.75,16.91 5.75,16.5 C5.75,16.09 6.09,15.75 6.5,15.75 C6.91,15.75 7.25,16.09 7.25,16.5 L7.25,16.5 Z M9.25,13.5 C9.25,13.91 8.91,14.25 8.5,14.25 C8.09,14.25 7.75,13.91 7.75,13.5 C7.75,13.09 8.09,12.75 8.5,12.75 C8.91,12.75 9.25,13.09 9.25,13.5 L9.25,13.5 Z M11.25,10.5 C11.25,10.91 10.91,11.25 10.5,11.25 C10.09,11.25 9.75,10.91 9.75,10.5 C9.75,10.09 10.09,9.75 10.5,9.75 C10.91,9.75 11.25,10.09 11.25,10.5 L11.25,10.5 Z M13.25,7.5 C13.25,7.91 12.91,8.25 12.5,8.25 C12.09,8.25 11.75,7.91 11.75,7.5 C11.75,7.09 12.09,6.75 12.5,6.75 C12.91,6.75 13.25,7.09 13.25,7.5 L13.25,7.5 Z M20.5,9.75 C20.09,9.75 19.75,10.09 19.75,10.5 C19.75,10.91 20.09,11.25 20.5,11.25 L20.5,17 C20.5,17.83 19.83,18.5 19,18.5 L5,18.5 C4.17,18.5 3.5,17.83 3.5,17 L3.5,14.25 C3.91,14.25 4.25,13.91 4.25,13.5 C4.25,13.09 3.91,12.75 3.5,12.75 L3.5,7 C3.5,6.17 4.17,5.5 5,5.5 L19,5.5 C19.83,5.5 20.5,6.17 20.5,7 L20.5,9.75 Z M19,4 L5,4 C3.34,4 2,5.34 2,7 L2,17 C2,18.66 3.34,20 5,20 L19,20 C20.66,20 22,18.66 22,17 L22,7 C22,5.34 20.66,4 19,4 L19,4 Z" fill="white"></path>
</svg>