<?xml version="1.0" encoding="iso-8859-1"?>
<!DOCTYPE svg PUBLIC "-//W3C//DTD SVG 1.1//EN" "http://www.w3.org/Graphics/SVG/1.1/DTD/svg11.dtd">
<svg xmlns="http://www.w3.org/2000/svg" xmlns:xlink= "http://www.w3.org/1999/xlink" height="24" width="24" viewBox="0 0 24 24" aria-hidden="true" class="inline-block align-middle">
	<path d="M21.75,14.7002 C21.75,16.6002 20.2,18.1502 18.3,18.1502 C15.44,18.1502 13.38,15.2402 11.39,12.4302 C9.62,9.9302 7.79,7.3502 5.7,7.3502 C4.62,7.3502 3.75,8.2202 3.75,9.3002 C3.75,11.3102 5.48,12.7002 7.3,14.1702 C9.06,15.5902 10.88,17.0502 10.95,19.1802 L10.95,19.2002 C10.95,19.2502 10.95,19.3002 10.94,19.3502 C10.87,21.1802 9.35,22.6502 7.5,22.6502 C7.09,22.6502 6.75,22.3102 6.75,21.9002 C6.75,21.4902 7.09,21.1502 7.5,21.1502 C8.57,21.1502 9.44,20.2902 9.45,19.2202 L9.45,19.2002 C9.4,17.7802 7.92,16.5902 6.36,15.3402 C4.43,13.7802 2.25,12.0202 2.25,9.3002 C2.25,7.4002 3.8,5.8502 5.7,5.8502 C8.56,5.8502 10.62,8.7602 12.61,11.5702 C14.38,14.0702 16.21,16.6502 18.3,16.6502 C19.38,16.6502 20.25,15.7802 20.25,14.7002 C20.25,12.6902 18.52,11.3002 16.7,9.8302 C14.94,8.4102 13.12,6.9502 13.05,4.8202 L13.05,4.8002 C13.05,4.7502 13.05,4.7002 13.06,4.6502 C13.13,2.8202 14.65,1.3502 16.5,1.3502 C16.91,1.3502 17.25,1.6902 17.25,2.1002 C17.25,2.5102 16.91,2.8502 16.5,2.8502 C15.43,2.8502 14.56,3.7102 14.55,4.7802 L14.55,4.8002 C14.6,6.2202 16.08,7.4102 17.64,8.6602 C19.57,10.2202 21.75,11.9802 21.75,14.7002" fill="white"></path>
</svg>