<?xml version="1.0" encoding="iso-8859-1"?>
<!DOCTYPE svg PUBLIC "-//W3C//DTD SVG 1.1//EN" "http://www.w3.org/Graphics/SVG/1.1/DTD/svg11.dtd">
<svg xmlns="http://www.w3.org/2000/svg" xmlns:xlink= "http://www.w3.org/1999/xlink" height="24" width="24" viewBox="0 0 24 24" aria-hidden="true" className="inline-block align-middle text-white">
    <path d="M6.564,1 C6.276,1 6,1.225 6,1.564 L6,19.285 C6,19.623 6.277,19.847 6.565,19.847 C6.704,19.847 6.846,19.794 6.961,19.678 L9.796,16.793 L12.224,22.69 C12.304,22.883 12.49,23 12.687,23 C12.751,23 12.816,22.987 12.879,22.961 L17.131,21.185 C17.385,21.079 17.505,20.788 17.401,20.534 L15.023,14.743 L19.189,14.743 C19.69,14.743 19.939,14.13 19.582,13.776 L6.953,1.163 C6.839,1.05 6.7,1 6.564,1 M7.5,3.83 L16.925,13.243 L12.786,13.243 L15.636,20.184 L13.229,21.189 L10.318,14.122 L7.5,16.989 L7.5,3.83" fill="white"></path>
</svg>