<?xml version="1.0" encoding="iso-8859-1"?>
<!DOCTYPE svg PUBLIC "-//W3C//DTD SVG 1.1//EN" "http://www.w3.org/Graphics/SVG/1.1/DTD/svg11.dtd">
<svg xmlns="http://www.w3.org/2000/svg" xmlns:xlink= "http://www.w3.org/1999/xlink" height="24" width="24" viewBox="0 0 24 24" aria-hidden="true" class="color">
	<path d="M17,4 L7,4 C5.343,4 4,5.343 4,7 L4,17 C4,18.657 5.343,20 7,20 L17,20 C18.657,20 20,18.657 20,17 L20,7 C20,5.343 18.657,4 17,4 M17,5.5 C17.827,5.5 18.5,6.173 18.5,7 L18.5,17 C18.5,17.827 17.827,18.5 17,18.5 L7,18.5 C6.173,18.5 5.5,17.827 5.5,17 L5.5,7 C5.5,6.173 6.173,5.5 7,5.5 L17,5.5" fill="#2b6cb0"></path>
</svg>
