<?xml version="1.0" encoding="iso-8859-1"?>
<!DOCTYPE svg PUBLIC "-//W3C//DTD SVG 1.1//EN" "http://www.w3.org/Graphics/SVG/1.1/DTD/svg11.dtd">
<svg xmlns="http://www.w3.org/2000/svg" xmlns:xlink= "http://www.w3.org/1999/xlink" height="18" width="18" viewBox="0 0 18 18" aria-hidden="true">
	<path d="m14.75 11c-.414 0-.75.336-.75.75v1.25c0 .828-.671 1.5-1.5 1.5h-7.5c-.829 0-1.5-.672-1.5-1.5v-1.25c0-.414-.336-.75-.75-.75s-.75.336-.75.75v1.25c0 1.657 1.343 3 3 3h7.5c1.657 0 3-1.343 3-3v-1.25c0-.414-.336-.75-.75-.75m-9.524-3.28c.29-.29.77-.29 1.06 0l1.72 1.72v-7.69c0-.21.08-.39.22-.53.13-.13.31-.22.53-.22.411 0 .75.34.75.75v7.69l1.71-1.72c.14-.14.34-.22.531-.22.199 0 .389.09.529.22.29.29.29.77 0 1.06l-2.99 3c-.14.13-.34.22-.53.22s-.39-.08-.53-.22l-3-3c-.13-.13-.21-.33-.22-.53.01-.19.09-.39.22-.53" fill="#2b6cb0"></path>
</svg>