<?xml version="1.0" encoding="iso-8859-1"?>
<!DOCTYPE svg PUBLIC "-//W3C//DTD SVG 1.1//EN" "http://www.w3.org/Graphics/SVG/1.1/DTD/svg11.dtd">
<svg xmlns="http://www.w3.org/2000/svg" xmlns:xlink= "http://www.w3.org/1999/xlink" height="18" width="18" viewBox="0 0 18 18" aria-hidden="true">
	<path d="M15.9985,2 L2.0015,2 C1.1855,2 0.7135,2.925 1.1905,3.586 L6.5005,10.5 L6.5005,15 C6.5005,15.553 6.9475,16 7.4995,16 L10.4995,16 C11.0525,16 11.4995,15.553 11.4995,15 L11.4995,10.5 L16.8095,3.586 C17.2865,2.925 16.8135,2 15.9985,2 M14.9835,3.5 L10.3105,9.587 L9.9995,9.99 L9.9995,10.5 L9.9995,14.5 L8.0005,14.5 L8.0005,10.5 L8.0005,9.99 L7.6895,9.587 L3.0165,3.5 L14.9835,3.5" fill="#2b6cb0"></path>
</svg>