<?xml version="1.0" encoding="iso-8859-1"?>
<!DOCTYPE svg PUBLIC "-//W3C//DTD SVG 1.1//EN" "http://www.w3.org/Graphics/SVG/1.1/DTD/svg11.dtd">
<svg xmlns="http://www.w3.org/2000/svg" xmlns:xlink= "http://www.w3.org/1999/xlink" height="18" width="18" viewBox="0 0 18 18" aria-hidden="true">
	<path d="M9,6.5 C9.414,6.5 9.75,6.164 9.75,5.75 C9.75,5.336 9.414,5 9,5 C8.586,5 8.25,5.336 8.25,5.75 C8.25,6.164 8.586,6.5 9,6.5 M8.25,8.75 L8.25,12.25 C8.25,12.664 8.586,13 9,13 C9.414,13 9.75,12.664 9.75,12.25 L9.75,8.75 C9.75,8.336 9.414,8 9,8 C8.586,8 8.25,8.336 8.25,8.75 M9,1 C4.58,1 1,4.58 1,9 C1,13.42 4.58,17 9,17 C13.42,17 17,13.42 17,9 C17,4.58 13.42,1 9,1 M9,2.5 C12.584,2.5 15.5,5.416 15.5,9 C15.5,12.584 12.584,15.5 9,15.5 C5.416,15.5 2.5,12.584 2.5,9 C2.5,5.416 5.416,2.5 9,2.5" fill="#2b6cb0"></path>
</svg>