<?xml version="1.0" encoding="UTF-8" standalone="no"?>
<svg xmlns="http://www.w3.org/2000/svg" viewBox="0 0 24 24" height="24" width="24" aria-hidden="true" class="c-blue400 mr1">
	<path d="M19,8 L14.5,8 L14.5,3.5 L6.5,3.5 C5.67,3.5 5,4.17 5,5 L5,19 C5,19.83 5.67,20.5 6.5,20.5 L17.5,20.5 C18.33,20.5 19,19.83 19,19 L19,8 Z M20.5,7.25 L20.5,19 C20.5,20.66 19.16,22 17.5,22 L6.5,22 C4.84,22 3.5,20.66 3.5,19 L3.5,5 C3.5,3.34 4.84,2 6.5,2 L15.25,2 L20.5,7.25 Z M17,12 C17,11.45 16.55,11 16,11 C15.45,11 15,11.45 15,12 C15,12.55 15.45,13 16,13 C16.55,13 17,12.55 17,12 L17,12 Z M7,18 L11,13 L13.2,15.75 L14.2,14.5 L17,18 L7,18 Z" fill="currentColor">
	</path>
</svg>