<?xml version="1.0" encoding="iso-8859-1"?>
<!DOCTYPE svg PUBLIC "-//W3C//DTD SVG 1.1//EN" "http://www.w3.org/Graphics/SVG/1.1/DTD/svg11.dtd">
<svg xmlns="http://www.w3.org/2000/svg" xmlns:xlink= "http://www.w3.org/1999/xlink" height="24" width="24" viewBox="0 0 24 24" aria-hidden="true" className="inline-block align-middle text-white">
    <path d="M18.25,17.4902 L18.23,17.4902 C18.21,17.5002 18.19,17.5002 18.17,17.5002 C17.93,17.5302 17.73,17.6702 17.61,17.8702 C17.59,17.9002 17.57,17.9502 17.55,17.9902 C17.53,18.0302 17.51,18.0802 17.51,18.1402 C17.5,18.1502 17.5,18.1702 17.5,18.1802 C17.46,18.6602 17.13,20.0002 16.5,20.0002 C15.73,20.0002 15.12,18.7302 14.96,18.2702 L14.96,18.2602 C14.88,18.0302 14.7,17.8602 14.48,17.7902 C14.41,17.7602 14.33,17.7502 14.26,17.7502 L14.23,17.7502 C14.16,17.7502 14.08,17.7602 14.01,17.7902 C13.78,17.8702 13.61,18.0502 13.54,18.2702 C13.41,18.6502 12.79,20.0002 12,20.0002 C11.23,20.0002 10.62,18.7302 10.46,18.2702 C10.39,18.0502 10.22,17.8702 9.99,17.7902 L9.98,17.7902 C9.91,17.7602 9.83,17.7502 9.76,17.7502 L9.73,17.7502 C9.66,17.7502 9.58,17.7602 9.51,17.7902 C9.3,17.8602 9.12,18.0302 9.04,18.2602 L9.04,18.2702 C8.91,18.6502 8.29,20.0002 7.5,20.0002 C6.83,20.0002 6.53,18.5402 6.5,18.1702 C6.5,18.1602 6.5,18.1402 6.49,18.1302 C6.47,18.0002 6.42,17.8802 6.34,17.7902 C6.31,17.7502 6.27,17.7192 6.24,17.6902 C6.21,17.6602 6.17,17.6302 6.13,17.6102 L6.01,17.5502 C5.97,17.5302 5.92,17.5102 5.86,17.5102 C5.85,17.5002 5.83,17.5002 5.82,17.5002 C5.34,17.4602 4,17.1302 4,16.5002 C4,15.7302 5.27,15.1202 5.73,14.9602 L5.74,14.9602 C5.97,14.8802 6.14,14.7002 6.21,14.4802 C6.24,14.4002 6.25,14.3302 6.25,14.2502 C6.25,14.1702 6.24,14.0902 6.21,14.0202 L6.21,14.0102 C6.13,13.7802 5.95,13.6102 5.73,13.5402 C5.35,13.4102 4,12.7902 4,12.0002 C4,11.2302 5.27,10.6202 5.73,10.4602 C5.95,10.3902 6.14,10.2192 6.21,9.9902 L6.21,9.9802 C6.24,9.9002 6.25,9.8302 6.25,9.7502 C6.25,9.6702 6.24,9.5902 6.21,9.5202 C6.14,9.3002 5.97,9.1202 5.74,9.0402 L5.73,9.0402 C5.35,8.9102 4,8.2902 4,7.5002 C4,6.8302 5.46,6.5302 5.83,6.5002 C5.84,6.5002 5.86,6.5002 5.87,6.4902 C6.02,6.4692 6.15,6.4002 6.25,6.3102 C6.31,6.2502 6.35,6.2002 6.39,6.1302 C6.41,6.1002 6.43,6.0502 6.45,6.0102 C6.47,5.9692 6.49,5.9202 6.49,5.8602 C6.5,5.8502 6.5,5.8302 6.5,5.8202 C6.54,5.3402 6.87,4.0002 7.5,4.0002 C8.27,4.0002 8.88,5.2702 9.04,5.7302 L9.04,5.7402 C9.12,5.9692 9.3,6.1402 9.52,6.2102 C9.6,6.2402 9.67,6.2502 9.75,6.2502 C9.83,6.2502 9.9,6.2402 9.98,6.2102 L9.99,6.2102 C10.22,6.1302 10.39,5.9502 10.46,5.7302 C10.59,5.3502 11.21,4.0002 12,4.0002 C12.77,4.0002 13.38,5.2702 13.54,5.7302 C13.61,5.9502 13.78,6.1302 14.01,6.2102 L14.02,6.2102 C14.1,6.2402 14.17,6.2502 14.25,6.2502 C14.33,6.2502 14.4,6.2402 14.48,6.2102 C14.7,6.1402 14.88,5.9692 14.96,5.7402 L14.96,5.7302 C15.09,5.3502 15.71,4.0002 16.5,4.0002 C17.17,4.0002 17.47,5.4602 17.5,5.8302 C17.5,5.8402 17.5,5.8602 17.51,5.8702 C17.51,5.9302 17.53,5.9802 17.55,6.0202 C17.57,6.0602 17.59,6.1102 17.61,6.1402 C17.64,6.1802 17.66,6.2192 17.69,6.2502 L17.75,6.3102 C17.78,6.3402 17.82,6.3602 17.86,6.3902 C17.95,6.4502 18.06,6.4902 18.18,6.5002 C18.66,6.5402 20,6.8702 20,7.5002 C20,8.2702 18.73,8.8802 18.27,9.0402 L18.26,9.0402 C18.03,9.1202 17.86,9.3002 17.79,9.5202 C17.76,9.6002 17.75,9.6702 17.75,9.7502 C17.75,9.8302 17.76,9.9102 17.79,9.9802 L17.79,9.9902 C17.87,10.2192 18.06,10.3902 18.27,10.4602 C18.65,10.5902 20,11.2102 20,12.0002 C20,12.7802 18.71,13.3902 18.26,13.5402 C18.05,13.6102 17.87,13.7802 17.79,14.0102 L17.79,14.0202 C17.76,14.1002 17.75,14.1702 17.75,14.2502 C17.75,14.3302 17.76,14.4102 17.79,14.4802 C17.86,14.7002 18.03,14.8802 18.26,14.9602 L18.27,14.9602 C18.65,15.0902 20,15.7102 20,16.5002 C20,17.1302 18.72,17.4302 18.25,17.4902 M21.5,12.0002 C21.5,10.9692 20.83,10.2302 20.14,9.7502 C20.83,9.2702 21.5,8.5302 21.5,7.5002 C21.5,6.0402 20.06,5.3402 18.9,5.1002 C18.66,3.9402 17.96,2.5002 16.5,2.5002 C15.47,2.5002 14.73,3.1702 14.25,3.8602 C13.77,3.1702 13.03,2.5002 12,2.5002 C10.97,2.5002 10.23,3.1702 9.75,3.8602 C9.27,3.1702 8.53,2.5002 7.5,2.5002 C6.04,2.5002 5.34,3.9402 5.1,5.1002 C3.94,5.3402 2.5,6.0402 2.5,7.5002 C2.5,8.5302 3.17,9.2702 3.86,9.7502 C3.17,10.2302 2.5,10.9692 2.5,12.0002 C2.5,13.0302 3.17,13.7702 3.86,14.2502 C3.17,14.7302 2.5,15.4692 2.5,16.5002 C2.5,17.9602 3.94,18.6602 5.1,18.9002 C5.34,20.0602 6.04,21.5002 7.5,21.5002 C8.53,21.5002 9.27,20.8302 9.75,20.1402 C10.23,20.8302 10.97,21.5002 12,21.5002 C13.03,21.5002 13.77,20.8302 14.25,20.1402 C14.73,20.8302 15.47,21.5002 16.5,21.5002 C17.96,21.5002 18.66,20.0602 18.9,18.9002 C20.06,18.6602 21.5,17.9602 21.5,16.5002 C21.5,15.4692 20.83,14.7302 20.14,14.2502 C20.83,13.7702 21.5,13.0302 21.5,12.0002" fill="white"></path>
</svg>