<?xml version="1.0" encoding="iso-8859-1"?>
<!DOCTYPE svg PUBLIC "-//W3C//DTD SVG 1.1//EN" "http://www.w3.org/Graphics/SVG/1.1/DTD/svg11.dtd">
<svg xmlns="http://www.w3.org/2000/svg" xmlns:xlink= "http://www.w3.org/1999/xlink" height="24" width="24" viewBox="0 0 24 24" aria-hidden="true" className="inline-block align-middle text-white">
    <path d="M14.1299,8.6904 C14.0019,8.6904 13.8749,8.6414 13.7769,8.5444 C13.5809,8.3494 13.5809,8.0324 13.7759,7.8374 L17.6959,3.9074 C17.8909,3.7114 18.2079,3.7114 18.4029,3.9064 C18.5989,4.1014 18.5989,4.4184 18.4039,4.6134 L14.4839,8.5434 C14.3859,8.6414 14.2579,8.6904 14.1299,8.6904 L14.1299,8.6904 Z M15.8249,10.3804 C15.6969,10.3804 15.5689,10.3314 15.4719,10.2344 C15.2759,10.0394 15.2759,9.7224 15.4709,9.5274 L19.3909,5.5974 C19.5859,5.4004 19.9019,5.4014 20.0979,5.5964 C20.2939,5.7914 20.2939,6.1074 20.0989,6.3034 L16.1789,10.2334 C16.0809,10.3314 15.9529,10.3804 15.8249,10.3804 L15.8249,10.3804 Z M5.4639,19.5974 L4.2799,20.7804 C3.9869,21.0734 3.5129,21.0734 3.2199,20.7804 C2.9269,20.4874 2.9269,20.0124 3.2199,19.7194 L4.4029,18.5364 L5.4639,19.5974 Z M22.0199,7.4194 C21.7269,7.1274 21.2529,7.1274 20.9609,7.4194 L15.4899,12.8904 C13.4099,14.9694 9.4399,16.4304 7.7199,17.0004 L6.9999,16.2794 C7.6699,14.2304 9.1799,10.4404 11.1099,8.5094 L11.7099,7.9194 L16.5809,3.0394 C16.8729,2.7474 16.8729,2.2734 16.5809,1.9804 C16.2879,1.6874 15.8129,1.6874 15.5199,1.9804 L10.0499,7.4504 C7.0499,10.4504 5.2999,16.7004 5.2999,16.7004 L7.2999,18.7004 C7.2999,18.7004 13.5499,16.9504 16.5499,13.9504 L22.0199,8.4804 C22.3129,8.1874 22.3129,7.7124 22.0199,7.4194 L22.0199,7.4194 Z" fill="white"></path>
</svg>